<svg width="400" height="400" viewBox="0 0 400 400" fill="none" xmlns="http://www.w3.org/2000/svg">
<path d="M50.14 111.55H40V132.96H50.14V111.55Z" fill="url(#paint0_linear_4315_5)"/>
<path d="M69.2899 104.79H59.1499V161.13H69.2899V104.79Z" fill="url(#paint1_linear_4315_5)"/>
<path d="M89.5801 98.03H78.3101V196.06H89.5801V98.03Z" fill="url(#paint2_linear_4315_5)"/>
<path d="M89.5801 245.63H78.3101V273.8H89.5801V245.63Z" fill="url(#paint3_linear_4315_5)"/>
<path d="M108.73 98.03H97.46V154.37H108.73V98.03Z" fill="url(#paint4_linear_4315_5)"/>
<path d="M108.73 174.65H97.46V217.47H108.73V174.65Z" fill="url(#paint5_linear_4315_5)"/>
<path d="M108.73 238.87H97.46V295.21H108.73V238.87Z" fill="url(#paint6_linear_4315_5)"/>
<path d="M127.89 111.55H117.75V139.72H127.89V111.55Z" fill="url(#paint7_linear_4315_5)"/>
<path d="M127.89 189.3H117.75V217.47H127.89V189.3Z" fill="url(#paint8_linear_4315_5)"/>
<path d="M127.89 230.99H117.75V267.05H127.89V230.99Z" fill="url(#paint9_linear_4315_5)"/>
<path d="M127.89 280.56H117.75V315.49H127.89V280.56Z" fill="url(#paint10_linear_4315_5)"/>
<path d="M147.04 126.2H136.9V154.37H147.04V126.2Z" fill="url(#paint11_linear_4315_5)"/>
<path d="M147.04 174.65H136.9V217.47H147.04V174.65Z" fill="url(#paint12_linear_4315_5)"/>
<path d="M147.04 230.99H136.9V252.4H147.04V230.99Z" fill="url(#paint13_linear_4315_5)"/>
<path d="M147.04 295.21H136.9V330.14H147.04V295.21Z" fill="url(#paint14_linear_4315_5)"/>
<path d="M166.2 69.8601H156.06V98.0301H166.2V69.8601Z" fill="url(#paint15_linear_4315_5)"/>
<path d="M166.2 139.72H156.06V217.47H166.2V139.72Z" fill="url(#paint16_linear_4315_5)"/>
<path d="M166.2 230.99H156.06V267.05H166.2V230.99Z" fill="url(#paint17_linear_4315_5)"/>
<path d="M166.2 280.56H156.06V323.38H166.2V280.56Z" fill="url(#paint18_linear_4315_5)"/>
<path d="M186.48 111.55H175.21V132.96H186.48V111.55Z" fill="url(#paint19_linear_4315_5)"/>
<path d="M186.48 161.13H175.21V202.82H186.48V161.13Z" fill="url(#paint20_linear_4315_5)"/>
<path d="M186.48 238.87H175.21V301.97H186.48V238.87Z" fill="url(#paint21_linear_4315_5)"/>
<path d="M205.64 146.48H194.37V267.04H205.64V146.48Z" fill="url(#paint22_linear_4315_5)"/>
<path d="M224.79 111.55H213.52V132.96H224.79V111.55Z" fill="url(#paint23_linear_4315_5)"/>
<path d="M224.79 161.13H213.52V202.82H224.79V161.13Z" fill="url(#paint24_linear_4315_5)"/>
<path d="M224.79 238.87H213.52V301.97H224.79V238.87Z" fill="url(#paint25_linear_4315_5)"/>
<path d="M243.94 69.8601H233.8V98.0301H243.94V69.8601Z" fill="url(#paint26_linear_4315_5)"/>
<path d="M243.94 139.72H233.8V217.47H243.94V139.72Z" fill="url(#paint27_linear_4315_5)"/>
<path d="M243.94 230.99H233.8V267.05H243.94V230.99Z" fill="url(#paint28_linear_4315_5)"/>
<path d="M243.94 280.56H233.8V323.38H243.94V280.56Z" fill="url(#paint29_linear_4315_5)"/>
<path d="M263.1 126.2H252.96V154.37H263.1V126.2Z" fill="url(#paint30_linear_4315_5)"/>
<path d="M263.1 174.65H252.96V217.47H263.1V174.65Z" fill="url(#paint31_linear_4315_5)"/>
<path d="M263.1 230.99H252.96V252.4H263.1V230.99Z" fill="url(#paint32_linear_4315_5)"/>
<path d="M263.1 295.21H252.96V330.14H263.1V295.21Z" fill="url(#paint33_linear_4315_5)"/>
<path d="M282.25 111.55H272.11V139.72H282.25V111.55Z" fill="url(#paint34_linear_4315_5)"/>
<path d="M282.25 189.3H272.11V217.47H282.25V189.3Z" fill="url(#paint35_linear_4315_5)"/>
<path d="M282.25 230.99H272.11V267.05H282.25V230.99Z" fill="url(#paint36_linear_4315_5)"/>
<path d="M282.25 280.56H272.11V315.49H282.25V280.56Z" fill="url(#paint37_linear_4315_5)"/>
<path d="M302.54 98.03H291.27V154.37H302.54V98.03Z" fill="url(#paint38_linear_4315_5)"/>
<path d="M302.54 174.65H291.27V217.47H302.54V174.65Z" fill="url(#paint39_linear_4315_5)"/>
<path d="M302.54 238.87H291.27V295.21H302.54V238.87Z" fill="url(#paint40_linear_4315_5)"/>
<path d="M321.69 98.03H310.42V196.06H321.69V98.03Z" fill="url(#paint41_linear_4315_5)"/>
<path d="M321.69 245.63H310.42V273.8H321.69V245.63Z" fill="url(#paint42_linear_4315_5)"/>
<path d="M340.84 104.79H330.7V161.13H340.84V104.79Z" fill="url(#paint43_linear_4315_5)"/>
<path d="M360 111.55H349.86V132.96H360V111.55Z" fill="url(#paint44_linear_4315_5)"/>
<defs>
<linearGradient id="paint0_linear_4315_5" x1="39.9208" y1="131.756" x2="55.7772" y2="127.081" gradientUnits="userSpaceOnUse">
<stop stop-color="white"/>
<stop offset="1" stop-color="#135DD5"/>
</linearGradient>
<linearGradient id="paint1_linear_4315_5" x1="59.0707" y1="157.961" x2="76.0916" y2="156.054" gradientUnits="userSpaceOnUse">
<stop stop-color="white"/>
<stop offset="1" stop-color="#135DD5"/>
</linearGradient>
<linearGradient id="paint2_linear_4315_5" x1="78.222" y1="190.546" x2="97.2796" y2="189.182" gradientUnits="userSpaceOnUse">
<stop stop-color="white"/>
<stop offset="1" stop-color="#135DD5"/>
</linearGradient>
<linearGradient id="paint3_linear_4315_5" x1="78.222" y1="272.215" x2="96.2586" y2="267.724" gradientUnits="userSpaceOnUse">
<stop stop-color="white"/>
<stop offset="1" stop-color="#135DD5"/>
</linearGradient>
<linearGradient id="paint4_linear_4315_5" x1="97.3719" y1="151.201" x2="116.235" y2="148.852" gradientUnits="userSpaceOnUse">
<stop stop-color="white"/>
<stop offset="1" stop-color="#135DD5"/>
</linearGradient>
<linearGradient id="paint5_linear_4315_5" x1="97.3719" y1="215.061" x2="116.026" y2="212.005" gradientUnits="userSpaceOnUse">
<stop stop-color="white"/>
<stop offset="1" stop-color="#135DD5"/>
</linearGradient>
<linearGradient id="paint6_linear_4315_5" x1="97.3719" y1="292.041" x2="116.235" y2="289.692" gradientUnits="userSpaceOnUse">
<stop stop-color="white"/>
<stop offset="1" stop-color="#135DD5"/>
</linearGradient>
<linearGradient id="paint7_linear_4315_5" x1="117.671" y1="138.136" x2="134.081" y2="134.458" gradientUnits="userSpaceOnUse">
<stop stop-color="white"/>
<stop offset="1" stop-color="#135DD5"/>
</linearGradient>
<linearGradient id="paint8_linear_4315_5" x1="117.671" y1="215.886" x2="134.081" y2="212.209" gradientUnits="userSpaceOnUse">
<stop stop-color="white"/>
<stop offset="1" stop-color="#135DD5"/>
</linearGradient>
<linearGradient id="paint9_linear_4315_5" x1="117.671" y1="265.022" x2="134.393" y2="262.095" gradientUnits="userSpaceOnUse">
<stop stop-color="white"/>
<stop offset="1" stop-color="#135DD5"/>
</linearGradient>
<linearGradient id="paint10_linear_4315_5" x1="117.671" y1="313.525" x2="134.36" y2="310.509" gradientUnits="userSpaceOnUse">
<stop stop-color="white"/>
<stop offset="1" stop-color="#135DD5"/>
</linearGradient>
<linearGradient id="paint11_linear_4315_5" x1="136.821" y1="152.786" x2="153.231" y2="149.109" gradientUnits="userSpaceOnUse">
<stop stop-color="white"/>
<stop offset="1" stop-color="#135DD5"/>
</linearGradient>
<linearGradient id="paint12_linear_4315_5" x1="136.821" y1="215.061" x2="153.689" y2="212.575" gradientUnits="userSpaceOnUse">
<stop stop-color="white"/>
<stop offset="1" stop-color="#135DD5"/>
</linearGradient>
<linearGradient id="paint13_linear_4315_5" x1="136.821" y1="251.196" x2="152.677" y2="246.521" gradientUnits="userSpaceOnUse">
<stop stop-color="white"/>
<stop offset="1" stop-color="#135DD5"/>
</linearGradient>
<linearGradient id="paint14_linear_4315_5" x1="136.821" y1="328.175" x2="153.51" y2="325.159" gradientUnits="userSpaceOnUse">
<stop stop-color="white"/>
<stop offset="1" stop-color="#135DD5"/>
</linearGradient>
<linearGradient id="paint15_linear_4315_5" x1="155.981" y1="96.4456" x2="172.392" y2="92.7685" gradientUnits="userSpaceOnUse">
<stop stop-color="white"/>
<stop offset="1" stop-color="#135DD5"/>
</linearGradient>
<linearGradient id="paint16_linear_4315_5" x1="155.981" y1="213.097" x2="173.103" y2="211.707" gradientUnits="userSpaceOnUse">
<stop stop-color="white"/>
<stop offset="1" stop-color="#135DD5"/>
</linearGradient>
<linearGradient id="paint17_linear_4315_5" x1="155.981" y1="265.022" x2="172.703" y2="262.095" gradientUnits="userSpaceOnUse">
<stop stop-color="white"/>
<stop offset="1" stop-color="#135DD5"/>
</linearGradient>
<linearGradient id="paint18_linear_4315_5" x1="155.981" y1="320.972" x2="172.849" y2="318.485" gradientUnits="userSpaceOnUse">
<stop stop-color="white"/>
<stop offset="1" stop-color="#135DD5"/>
</linearGradient>
<linearGradient id="paint19_linear_4315_5" x1="175.122" y1="131.756" x2="192.42" y2="126.088" gradientUnits="userSpaceOnUse">
<stop stop-color="white"/>
<stop offset="1" stop-color="#135DD5"/>
</linearGradient>
<linearGradient id="paint20_linear_4315_5" x1="175.122" y1="200.475" x2="193.75" y2="197.34" gradientUnits="userSpaceOnUse">
<stop stop-color="white"/>
<stop offset="1" stop-color="#135DD5"/>
</linearGradient>
<linearGradient id="paint21_linear_4315_5" x1="175.122" y1="298.421" x2="194.043" y2="296.317" gradientUnits="userSpaceOnUse">
<stop stop-color="white"/>
<stop offset="1" stop-color="#135DD5"/>
</linearGradient>
<linearGradient id="paint22_linear_4315_5" x1="194.282" y1="260.259" x2="213.373" y2="259.148" gradientUnits="userSpaceOnUse">
<stop stop-color="white"/>
<stop offset="1" stop-color="#135DD5"/>
</linearGradient>
<linearGradient id="paint23_linear_4315_5" x1="213.432" y1="131.756" x2="230.73" y2="126.088" gradientUnits="userSpaceOnUse">
<stop stop-color="white"/>
<stop offset="1" stop-color="#135DD5"/>
</linearGradient>
<linearGradient id="paint24_linear_4315_5" x1="213.432" y1="200.475" x2="232.06" y2="197.34" gradientUnits="userSpaceOnUse">
<stop stop-color="white"/>
<stop offset="1" stop-color="#135DD5"/>
</linearGradient>
<linearGradient id="paint25_linear_4315_5" x1="213.432" y1="298.421" x2="232.353" y2="296.317" gradientUnits="userSpaceOnUse">
<stop stop-color="white"/>
<stop offset="1" stop-color="#135DD5"/>
</linearGradient>
<linearGradient id="paint26_linear_4315_5" x1="233.721" y1="96.4456" x2="250.131" y2="92.7685" gradientUnits="userSpaceOnUse">
<stop stop-color="white"/>
<stop offset="1" stop-color="#135DD5"/>
</linearGradient>
<linearGradient id="paint27_linear_4315_5" x1="233.721" y1="213.097" x2="250.842" y2="211.707" gradientUnits="userSpaceOnUse">
<stop stop-color="white"/>
<stop offset="1" stop-color="#135DD5"/>
</linearGradient>
<linearGradient id="paint28_linear_4315_5" x1="233.721" y1="265.022" x2="250.443" y2="262.095" gradientUnits="userSpaceOnUse">
<stop stop-color="white"/>
<stop offset="1" stop-color="#135DD5"/>
</linearGradient>
<linearGradient id="paint29_linear_4315_5" x1="233.721" y1="320.972" x2="250.589" y2="318.485" gradientUnits="userSpaceOnUse">
<stop stop-color="white"/>
<stop offset="1" stop-color="#135DD5"/>
</linearGradient>
<linearGradient id="paint30_linear_4315_5" x1="252.881" y1="152.786" x2="269.291" y2="149.109" gradientUnits="userSpaceOnUse">
<stop stop-color="white"/>
<stop offset="1" stop-color="#135DD5"/>
</linearGradient>
<linearGradient id="paint31_linear_4315_5" x1="252.881" y1="215.061" x2="269.749" y2="212.575" gradientUnits="userSpaceOnUse">
<stop stop-color="white"/>
<stop offset="1" stop-color="#135DD5"/>
</linearGradient>
<linearGradient id="paint32_linear_4315_5" x1="252.881" y1="251.196" x2="268.737" y2="246.521" gradientUnits="userSpaceOnUse">
<stop stop-color="white"/>
<stop offset="1" stop-color="#135DD5"/>
</linearGradient>
<linearGradient id="paint33_linear_4315_5" x1="252.881" y1="328.175" x2="269.57" y2="325.159" gradientUnits="userSpaceOnUse">
<stop stop-color="white"/>
<stop offset="1" stop-color="#135DD5"/>
</linearGradient>
<linearGradient id="paint34_linear_4315_5" x1="272.031" y1="138.136" x2="288.441" y2="134.458" gradientUnits="userSpaceOnUse">
<stop stop-color="white"/>
<stop offset="1" stop-color="#135DD5"/>
</linearGradient>
<linearGradient id="paint35_linear_4315_5" x1="272.031" y1="215.886" x2="288.441" y2="212.209" gradientUnits="userSpaceOnUse">
<stop stop-color="white"/>
<stop offset="1" stop-color="#135DD5"/>
</linearGradient>
<linearGradient id="paint36_linear_4315_5" x1="272.031" y1="265.022" x2="288.753" y2="262.095" gradientUnits="userSpaceOnUse">
<stop stop-color="white"/>
<stop offset="1" stop-color="#135DD5"/>
</linearGradient>
<linearGradient id="paint37_linear_4315_5" x1="272.031" y1="313.525" x2="288.72" y2="310.509" gradientUnits="userSpaceOnUse">
<stop stop-color="white"/>
<stop offset="1" stop-color="#135DD5"/>
</linearGradient>
<linearGradient id="paint38_linear_4315_5" x1="291.182" y1="151.201" x2="310.045" y2="148.852" gradientUnits="userSpaceOnUse">
<stop stop-color="white"/>
<stop offset="1" stop-color="#135DD5"/>
</linearGradient>
<linearGradient id="paint39_linear_4315_5" x1="291.182" y1="215.061" x2="309.837" y2="212.005" gradientUnits="userSpaceOnUse">
<stop stop-color="white"/>
<stop offset="1" stop-color="#135DD5"/>
</linearGradient>
<linearGradient id="paint40_linear_4315_5" x1="291.182" y1="292.041" x2="310.045" y2="289.692" gradientUnits="userSpaceOnUse">
<stop stop-color="white"/>
<stop offset="1" stop-color="#135DD5"/>
</linearGradient>
<linearGradient id="paint41_linear_4315_5" x1="310.332" y1="190.546" x2="329.389" y2="189.182" gradientUnits="userSpaceOnUse">
<stop stop-color="white"/>
<stop offset="1" stop-color="#135DD5"/>
</linearGradient>
<linearGradient id="paint42_linear_4315_5" x1="310.332" y1="272.215" x2="328.368" y2="267.724" gradientUnits="userSpaceOnUse">
<stop stop-color="white"/>
<stop offset="1" stop-color="#135DD5"/>
</linearGradient>
<linearGradient id="paint43_linear_4315_5" x1="330.621" y1="157.961" x2="347.642" y2="156.054" gradientUnits="userSpaceOnUse">
<stop stop-color="white"/>
<stop offset="1" stop-color="#135DD5"/>
</linearGradient>
<linearGradient id="paint44_linear_4315_5" x1="349.781" y1="131.756" x2="365.637" y2="127.081" gradientUnits="userSpaceOnUse">
<stop stop-color="white"/>
<stop offset="1" stop-color="#135DD5"/>
</linearGradient>
</defs>
</svg>
